<svg xmlns="http://www.w3.org/2000/svg" xmlns:xlink="http://www.w3.org/1999/xlink" width="500" zoomAndPan="magnify" viewBox="0 0 375 374.999991" height="500" preserveAspectRatio="xMidYMid meet" version="1.0"><defs><g/><clipPath id="7763d724f0"><rect x="0" width="324" y="0" height="68"/></clipPath></defs><g transform="matrix(1, 0, 0, 1, 25, 154)"><g clip-path="url(#7763d724f0)"><g fill="#ffde59" fill-opacity="1"><g transform="translate(1.592155, 56.815815)"><g><path d="M 22.53125 -4.828125 L 1.609375 -15.28125 L 1.609375 -18.5 L 22.53125 -28.953125 L 24.140625 -25.75 L 24.140625 -24.9375 L 8.046875 -16.890625 L 24.140625 -8.84375 L 24.140625 -8.046875 Z M 22.53125 -4.828125 "/></g></g></g><g fill="#ffde59" fill-opacity="1"><g transform="translate(33.770128, 56.815815)"><g><path d="M 0 6.4375 L -3.21875 4.828125 L 21.71875 -45.046875 L 22.53125 -45.046875 L 25.75 -43.4375 L 0.796875 6.4375 Z M 0 6.4375 "/></g></g></g><g fill="#ffde59" fill-opacity="1"><g transform="translate(65.9481, 56.815815)"><g><path d="M 1.609375 -4.828125 L 0 -8.046875 L 0 -8.84375 L 16.09375 -16.890625 L 0 -24.9375 L 0 -25.75 L 1.609375 -28.953125 L 22.53125 -18.5 L 22.53125 -15.28125 Z M 1.609375 -4.828125 "/></g></g></g><g fill="#ffffff" fill-opacity="1"><g transform="translate(98.134205, 56.815815)"><g><path d="M 0 0 L 0 -43.4375 L 4.828125 -43.4375 L 4.828125 -24.140625 L 19.3125 -24.140625 L 19.3125 -43.4375 L 24.140625 -43.4375 L 24.140625 0 L 19.3125 0 L 19.3125 -19.3125 L 4.828125 -19.3125 L 4.828125 0 Z M 0 0 "/></g></g></g><g fill="#ffffff" fill-opacity="1"><g transform="translate(130.312178, 56.815815)"><g><path d="M 14.484375 -24.140625 L 19.3125 -28.953125 L 19.3125 -33.78125 L 14.484375 -38.609375 L 4.828125 -38.609375 L 4.828125 -24.140625 Z M 0 0 L 0 -43.4375 L 16.09375 -43.4375 L 24.140625 -35.390625 L 24.140625 -27.34375 L 16.09375 -19.3125 L 15.28125 -19.3125 L 24.140625 -1.609375 L 20.921875 0 L 20.109375 0 L 10.453125 -19.3125 L 4.828125 -19.3125 L 4.828125 0 Z M 0 0 "/></g></g></g><g fill="#ffffff" fill-opacity="1"><g transform="translate(162.490151, 56.815815)"><g><path d="M 0 0 L 0 -43.4375 L 4.828125 -43.4375 L 4.828125 -4.828125 L 24.140625 -4.828125 L 24.140625 0 Z M 0 0 "/></g></g></g><g fill="#ffffff" fill-opacity="1"><g transform="translate(194.668124, 56.815815)"><g><path d="M 8.046875 0 L 8.046875 -8.046875 L 16.09375 -8.046875 L 16.09375 0 Z M 8.046875 0 "/></g></g></g><g fill="#ffffff" fill-opacity="1"><g transform="translate(226.846097, 56.815815)"><g><path d="M 12.875 -4.828125 L 19.3125 -11.265625 L 19.3125 -24.140625 L 14.484375 -28.953125 L 9.65625 -28.953125 L 4.828125 -24.140625 L 4.828125 -9.65625 L 9.65625 -4.828125 Z M 8.046875 0 L 0 -8.046875 L 0 -25.75 L 8.046875 -33.78125 L 16.09375 -33.78125 L 19.3125 -30.5625 L 19.3125 -43.4375 L 24.140625 -43.4375 L 24.140625 0 L 19.3125 0 L 19.3125 -4.828125 L 14.484375 0 Z M 8.046875 0 "/></g></g></g><g fill="#ffffff" fill-opacity="1"><g transform="translate(259.024069, 56.815815)"><g><path d="M 19.3125 -19.3125 L 19.3125 -24.140625 L 14.484375 -28.953125 L 9.65625 -28.953125 L 4.828125 -24.140625 L 4.828125 -19.3125 Z M 8.046875 0 L 0 -8.046875 L 0 -25.75 L 8.046875 -33.78125 L 16.09375 -33.78125 L 24.140625 -25.75 L 24.140625 -14.484375 L 4.828125 -14.484375 L 4.828125 -9.65625 L 9.65625 -4.828125 L 14.484375 -4.828125 L 20.921875 -11.265625 L 24.140625 -8.046875 L 16.09375 0 Z M 8.046875 0 "/></g></g></g><g fill="#ffffff" fill-opacity="1"><g transform="translate(291.202042, 56.815815)"><g><path d="M 10.453125 0 L 0 -20.921875 L 0 -33.78125 L 4.828125 -33.78125 L 4.828125 -20.921875 L 12.0625 -6.4375 L 19.3125 -20.921875 L 19.3125 -33.78125 L 24.140625 -33.78125 L 24.140625 -20.921875 L 13.671875 0 Z M 10.453125 0 "/></g></g></g></g></g></svg>